# WaveFront *.obj file (generated by CINEMA 4D)

mtllib ./baum_klein.mtl

v -815.082275390625 531.26239013671875 59.51501083374023
v -773.11102294921875 507.55404663085938 -40.01348114013672
v -564.10772705078125 523.06268310546875 4.50809907913208
v -633.333740234375 517.1541748046875 113.5498046875
v -753.43743896484375 355.99356079101562 -23.29249954223633
v -668.76239013671875 369.53109741210938 -120.8443603515625
v -547.2701416015625 423.54074096679688 -97.03702545166016
v -617.095458984375 328.0025634765625 -29.90032958984375
v -665.13482666015625 583.2431640625 20.21642303466797
v -664.87298583984375 515.1053466796875 -110.24171447753906
v -670.110107421875 431.41098022460938 134.99052429199219
v -763.1168212890625 388.5919189453125 73.00186157226562
v -797.0777587890625 404.40496826171875 -82.08257293701172
v -647.66485595703125 436.73635864257812 -145.34303283691406
v -539.77740478515625 451.81021118164062 40.39073181152344
v -611.457275390625 369.69830322265625 122.80775451660156
v -669.4793701171875 327.10549926757812 31.37189102172852
v -585.1104736328125 183.56040954589844 -74.04039764404297
v -558.39892578125 206.80218505859375 -110.41252899169922
v -644.3878173828125 244.97222900390625 -139.18400573730469
v -633.80133056640625 216.88551330566406 -87.30832672119141
v -527.7855224609375 238.33866882324219 -61.20712661743164
v -533.4114990234375 268.99917602539062 -114.77360534667969
v -600.57135009765625 280.55752563476562 -126.65256500244141
v -576.33087158203125 291.1485595703125 -78.05207824707031
v -623.904296875 194.20753479003906 -126.76153564453125
v -572.12677001953125 224.13206481933594 -159.09666442871094
v -629.0850830078125 224.02420043945312 -47.62289810180664
v -574.20147705078125 215.05270385742188 -41.8345947265625
v -506.51620483398438 221.94554138183594 -89.41067504882812
v -553.8062744140625 256.74612426757812 -150.55586242675781
v -649.5174560546875 271.59942626953125 -103.22795104980469
v -627.373291015625 253.2662353515625 -48.68193435668945
v -580.70233154296875 260.2490234375 -56.11341094970703
v -760.731201171875 -5.01959323883057 -20.08626174926758
v -756.67340087890625 35.52499008178711 -20.09923362731934
v -733.8907470703125 -6.17153644561768 -47.24194717407227
v -733.02911376953125 37.37916946411133 -41.87255859375
v -731.135009765625 -5.78958988189697 5.6902289390564
v -734.47344970703125 35.38832855224609 3.44298791885376
v -710.5611572265625 -5.5025577545166 -22.6200065612793
v -716.04461669921875 37.37916946411133 -18.22398376464844
v -727.699462890625 194.80111694335938 -19.93544769287109
v -712.68701171875 195.49496459960938 -32.00371932983398
v -713.05242919921875 196.25410461425781 -5.00726079940796
v -698.58013916015625 201.82356262207031 -15.20485019683838
v -752.05517578125 304.42813110351562 -20.52178001403809
v -742.10845947265625 300.68817138671875 -33.12045288085938
v -743.37335205078125 298.82943725585938 -5.7927041053772
v -729.24652099609375 298.05657958984375 -16.69607734680176
v -712.102783203125 385.78890991210938 -22.02753067016602
v -706.84356689453125 385.63436889648438 -30.8925952911377
v -705.677001953125 382.8431396484375 -11.01750087738037
v -700.97930908203125 380.349853515625 -20.95546531677246
v -706.770263671875 221.55845642089844 -15.8584508895874
v -719.48675537109375 218.07537841796875 -6.6824049949646
v -731.22857666015625 217.82894897460938 -19.78051948547363
v -719.10693359375 217.43507385253906 -30.57059669494629
v -675.7109375 209.62773132324219 -69.394287109375
v -668.12274169921875 213.03189086914062 -60.35811996459961
v -680.11029052734375 224.63729858398438 -69.980224609375
v -672.1473388671875 227.29881286621094 -60.48400497436523
v -625.71661376953125 221.57388305664062 -98.24073028564453
v -619.4139404296875 224.40139770507812 -90.73531341552734
v -629.37066650390625 234.04080200195312 -98.72740173339844
v -622.7567138671875 236.25148010253906 -90.83987426757812
# 66 vertices

vn -0.11700968444347 0.79127186536789 0.60016459226608
vn 0 0 0
vn -0.34085610508919 0.83302074670792 -0.43576782941818
vn -0.24491129815578 0.33276107907295 0.91065281629562
vn -0.8220626115799 0.36816036701202 -0.43436273932457
vn 0.55633145570755 0.63770627975464 -0.53275316953659
vn 0.72296971082687 0.49142292141914 0.48561131954193
vn -0.51651734113693 -0.10783260315657 0.84945982694626
vn 0.95618718862534 0.27206775546074 -0.10809803009033
vn 0.59199035167694 -0.05281296744943 0.80421280860901
vn -0.45396518707275 -0.85683655738831 0.24443139135838
vn -0.20564073324203 -0.92908555269241 -0.30742791295052
vn 0.42513835430145 -0.70746248960495 -0.56458324193954
vn 0.82799273729324 -0.55643773078918 0.06931836903095
vn 0.297926902771 -0.9236171245575 0.2411865144968
vn 0.80709004402161 -0.5764747262001 0.12760309875011
vn -0.20627285540104 -0.95979082584381 -0.19040231406689
vn -0.27747929096222 -0.79138100147247 0.54472136497498
vn 0.51792359352112 0.33703252673149 0.78623420000076
vn 0.349375218153 -0.4157726764679 -0.83968448638916
vn -0.35448786616325 -0.83371299505234 -0.42339217662811
vn -0.32754719257355 -0.47279542684555 0.8180325627327
vn 0.43500542640686 0.44589534401894 -0.78227084875107
vn -0.33764490485191 -0.22700355947018 -0.91349071264267
vn -0.42568850517273 0.29038166999817 -0.85701096057892
vn -0.51365584135056 0.42364740371704 -0.7461102604866
vn -0.80396246910095 -0.58313792943954 0.11659539490938
vn -0.93087202310562 -0.32289791107178 0.1709216684103
vn 0.51722186803818 0.77165526151657 0.37017518281937
vn 0.41516953706741 0.80672258138657 -0.4205150604248
vn -0.38894185423851 0.84567242860794 -0.36546185612679
vn -0.59304755926132 -0.75332462787628 0.2842473089695
vn 0.26664280891418 -0.88177490234375 -0.38906893134117
vn -0.59055227041245 -0.77910828590393 0.21032911539078
vn 0.37404552102089 -0.8813915848732 -0.28851133584976
vn -0.11363583058119 0.45156556367874 -0.88497197628021
vn -0.96382367610931 -0.26068788766861 0.0555489435792
vn -0.18536479771137 -0.67047196626663 0.71840608119965
vn -0.40687546133995 0.70538455247879 -0.58041793107986
vn -0.96051752567291 -0.23061776161194 0.15563257038593
vn 0.22215412557125 0.32263469696045 0.92008394002914
vn 0.64024049043655 0.69375216960907 0.32984840869904
vn 0.2141021490097 0.92673540115356 -0.30874225497246
vn -0.22483558952808 0.96934431791306 -0.09909851849079
vn 0.0442684777081 0.57418292760849 0.8175293803215
vn -0.36755296587944 0.8262255191803 0.42691481113434
vn 0.29433423280716 0.52524322271347 0.79842782020569
vn 0.10347225517035 0.31313696503639 0.94405442476273
vn -0.91624987125397 0.06793452054262 0.3948050737381
vn 0.22633826732636 0.87471503019333 -0.42853772640228
vn 0.77665156126022 0.57841217517853 0.24950279295444
vn -0.09804010391235 0.04174916818738 0.99430638551712
vn -0.26083022356033 0.37902748584747 -0.8878658413887
vn 0.82545328140259 0.18421629071236 -0.53356462717056
vn 0.70662206411362 -0.22089558839798 -0.67222791910172
vn 0.40359070897102 -0.82006520032883 -0.40571868419647
vn 0.53376573324203 -0.49143514037132 0.68817555904388
vn 0.452203810215 -0.70944559574127 0.54055404663086
vn -0.92593425512314 -0.37737235426903 -0.01535900309682
vn -0.34151273965836 -0.35114043951035 -0.87181961536407
vn 0.26426523923874 -0.88898688554764 -0.37398687005043
vn -0.69327366352081 0.08690646290779 -0.71541523933411
vn 0.76492524147034 0.11635187268257 -0.63352316617966
vn 0.78182828426361 0.06991691142321 0.61956131458282
vn -0.69259959459305 0.03041561320424 0.72068071365356
vn -0.00920071452856 -0.99992227554321 0.00841710157692
vn 0.79306936264038 -0.06797279417515 -0.60532695055008
vn 0.57887971401215 0.17033728957176 0.79742300510406
vn 0.68315505981445 -0.07331043481827 0.72658425569534
vn -0.65175986289978 0.12352602928877 -0.74829834699631
vn -0.71747326850891 0.13082674145699 0.68419033288956
vn -0.75031626224518 0.34578275680542 -0.56343567371368
vn -0.73001533746719 -0.20101708173752 -0.65319961309433
vn -0.81085962057114 -0.21882982552052 0.54278922080994
vn 0.75488692522049 0.20230565965176 -0.62387347221375
vn 0.42066484689713 0.90147393941879 0.10191084444523
vn -0.74352294206619 0.37121242284775 0.55621480941772
vn 0.73947507143021 -0.28893944621086 -0.60802191495895
vn 0.73190861940384 -0.24601930379868 0.63544023036957
vn -0.24500367045403 0.96729618310928 -0.06566006690264
vn -0.71876126527786 -0.13908423483372 0.68120318651199
vn -0.64089339971542 -0.11342886090279 -0.75920325517654
vn 0.5146672129631 0.2287607640028 0.8263087272644
vn -0.22642101347446 0.9705582857132 -0.08215912431478
vn -0.6734544634819 -0.18737332522869 -0.71508759260178
vn 0.75537180900574 0.27413326501846 0.5952011346817
vn 0.3813456594944 -0.92401254177094 0.02786347642541
vn 0.71995842456818 0.19121147692204 -0.66715669631958
vn -0.46187570691109 -0.16936331987381 -0.87062442302704
vn 0.49822404980659 0.14808167517185 0.85430943965912
vn 0.29194641113281 -0.94977796077728 0.11264611035585
# 91 normals

vt 0.45328345894814 0.50173902511597 0
vt 0.45328345894814 0.08781385421753 0
vt 0.0393582880497 0.08781385421753 0
vt 0 1 0
vt 0.70139235258102 0.04524672031403 0
vt 0.70738559961319 0.14266180992126 0
vt 0.75750011205673 0.13706839084625 0
vt 0.76094597578049 0.04605770111084 0
vt 0.87800544500351 0.51077491044998 0
vt 0.87614589929581 0.41410434246063 0
vt 0.83083456754684 0.41581404209137 0
vt 0.82518142461777 0.51395577192307 0
vt 0.89115971326828 0.50864779949188 0
vt 0.88358408212662 0.41640222072601 0
vt 0.82518142461777 0.92054945230484 0
vt 0.82208400964737 0.82924699783325 0
vt 0.77160203456879 0.82824069261551 0
vt 0.76445335149765 0.92038196325302 0
vt 0.88410156965256 0.5998946428299 0
vt 0.88410156965256 0.51395577192307 0
vt 0.82998156547546 0.52254813909531 0
vt 0.82518142461777 0.59726184606552 0
vt 0.89115983247757 0.04524672031403 0
vt 0.85715740919113 0.06062257289886 0
vt 0.79848778247833 0.23781085014343 0
vt 0.79674714803696 0.23804128170013 0
vt 0.77065140008926 0.40772247314453 0
vt 0.77285927534103 0.416872382164 0
vt 0.96156692504883 0.45283508300781 0
vt 0.94617998600006 0.41804349422455 0
vt 0.92802268266678 0.53900563716888 0
vt 0.96156698465347 0.58101695775986 0
vt 0.69916290044785 0.49700319766998 0
vt 0.72915101051331 0.49464333057404 0
vt 0.79626160860062 0.46945059299469 0
vt 0.76370507478714 0.46530950069427 0
vt 0.70037800073624 0.91809058189392 0
vt 0.71577036380768 0.91787433624268 0
vt 0.76094591617584 0.73500680923462 0
vt 0.73610883951187 0.72742515802383 0
vt 0.73409628868103 0.54629743099213 0
vt 0.70875400304794 0.54612505435944 0
vt 0.82518142461777 0.23125290870667 0
vt 0.80031061172485 0.41810297966003 0
vt 0.92406898736954 0.23580467700958 0
vt 0.89115983247757 0.23676717281342 0
vt 0.92112654447556 0.41804349422455 0
vt 0.95091551542282 0.40761458873749 0
vt 0.95091551542282 0.04539847373962 0
vt 0.93092554807663 0.04524672031403 0
vt 0.9256294965744 0.04646611213684 0
vt 0.94387370347977 0.05195462703705 0
vt 0.7879940867424 0.04524672031403 0
vt 0.76805776357651 0.04595267772675 0
vt 0.96763294935226 0.05488443374634 0
vt 0.95204263925552 0.04524672031403 0
vt 0.95091551542282 0.14866948127747 0
vt 0.96763294935226 0.17985570430756 0
vt 0.62254947423935 0.56486362218857 0
vt 0.62342554330826 0.57029616832733 0
vt 0.71011137962341 0.55454164743423 0
vt 0.76094597578049 0.45130109786987 0
vt 0.53407090902328 0.58794814348221 0
vt 0.53479862213135 0.59246057271957 0
vt 0.61762607097626 0.5311633348465 0
vt 0.9302334189415 0.58101695775986 0
vt 0.92802268266678 0.61364156007767 0
vt 0.94631880521774 0.64373135566711 0
vt 0.94631880521774 0.597207903862 0
vt 0.91024786233902 0.54709726572037 0
vt 0.89115983247757 0.54681330919266 0
vt 0.89253693819046 0.66793668270111 0
vt 0.92802268266678 0.66846483945847 0
vt 0.84125560522079 0.62869638204575 0
vt 0.85769265890121 0.62869638204575 0
vt 0.85764497518539 0.5998946428299 0
vt 0.84175807237625 0.60147970914841 0
vt 0.52998155355453 0.55995684862137 0
vt 0.82790452241898 0.65534055233002 0
vt 0.84125560522079 0.63652938604355 0
vt 0.84125560522079 0.5998946428299 0
vt 0.82518142461777 0.62254267930984 0
vt 0.92802268266678 0.41827940940857 0
vt 0.91216820478439 0.41804349422455 0
# 84 texture coordinates

o Normal_Tree01.001
usemtl Material
f 1/3/1 4/2/1 9/1/1
f 9/3/3 10/2/3 2/1/3
f 1/3/4 11/2/4 4/1/4
f 2/3/5 13/2/5 1/1/5
f 3/3/6 7/2/6 10/1/6
f 4/3/7 15/2/7 3/1/7
f 1/3/8 12/2/8 11/1/8
f 3/3/9 15/2/9 7/1/9
f 4/3/10 11/2/10 15/1/10
f 5/3/11 17/2/11 12/1/11
f 6/3/12 8/2/12 5/1/12
f 7/3/13 8/2/13 6/1/13
f 15/3/14 8/2/14 7/1/14
f 17/3/15 8/2/15 16/1/15
f 16/3/16 8/2/16 15/1/16
f 8/3/17 17/2/17 5/1/17
f 12/3/18 17/2/18 16/1/18
f 11/3/19 16/2/19 15/1/19
f 14/3/20 7/2/20 6/1/20
f 13/3/21 6/2/21 5/1/21
f 11/3/22 12/2/22 16/1/22
f 7/3/23 14/2/23 10/1/23
f 14/3/24 6/2/24 13/1/24
f 14/3/25 13/2/25 10/1/25
f 10/3/26 13/2/26 2/1/26
f 13/3/27 5/2/27 12/1/27
f 13/3/28 12/2/28 1/1/28
f 9/3/29 4/2/29 3/1/29
f 9/3/30 3/2/30 10/1/30
f 2/3/31 1/2/31 9/1/31
f 18/3/32 21/2/32 26/1/32
f 26/3/33 27/2/33 19/1/33
f 18/3/34 28/2/34 21/1/34
f 19/3/35 30/2/35 18/1/35
f 20/3/36 24/2/36 27/1/36
f 21/3/37 32/2/37 20/1/37
f 18/3/38 29/2/38 28/1/38
f 20/3/39 32/2/39 24/1/39
f 21/3/40 28/2/40 32/1/40
f 22/3/41 34/2/41 29/1/41
f 23/3/42 25/2/42 22/1/42
f 24/3/43 25/2/43 23/1/43
f 32/3/44 25/2/44 24/1/44
f 34/3/45 25/2/45 33/1/45
f 33/3/46 25/2/46 32/1/46
f 25/3/47 34/2/47 22/1/47
f 29/3/48 34/2/48 33/1/48
f 28/3/49 33/2/49 32/1/49
f 31/3/50 24/2/50 23/1/50
f 30/3/51 23/2/51 22/1/51
f 28/3/52 29/2/52 33/1/52
f 24/3/53 31/2/53 27/1/53
f 31/3/54 23/2/54 30/1/54
f 31/3/55 30/2/55 27/1/55
f 27/3/56 30/2/56 19/1/56
f 30/3/57 22/2/57 29/1/57
f 30/3/58 29/2/58 18/1/58
f 26/3/59 21/2/59 20/1/59
f 26/3/60 20/2/60 27/1/60
f 19/3/61 18/2/61 26/1/61
f 37/22/66 41/21/66 39/20/66 35/19/66
f 54/52/76 52/51/76 51/50/76 53/49/76
f 64/77/88 63/76/88 65/75/88 66/74/88

usemtl Mat
f 35/8/62 36/7/62 38/6/62 37/5/62
f 37/12/63 38/11/63 42/10/63 41/9/63
f 41/9/64 42/10/64 40/14/64 39/13/64
f 39/18/65 40/17/65 36/16/65 35/15/65
f 42/10/67 38/11/67 44/24/67 46/23/67
f 56/28/68 55/27/68 50/26/68 49/25/68
f 40/32/69 42/31/69 46/30/69 45/29/69
f 38/6/70 36/7/70 43/34/70 44/33/70
f 36/16/71 40/17/71 45/36/71 43/35/71
f 48/40/72 47/39/72 51/38/72 52/37/72
f 58/42/73 57/41/73 47/39/73 48/40/73
f 57/44/74 56/28/74 49/25/74 47/43/74
f 55/48/75 58/47/75 48/46/75 50/45/75
f 47/43/77 49/25/77 53/54/77 51/53/77
f 50/45/78 48/46/78 52/51/78 54/52/78
f 49/58/79 50/57/79 54/56/79 53/55/79
f 58/42/80 55/61/80 62/60/80 61/59/80
f 43/35/81 45/36/81 56/28/81 57/44/81
f 44/33/82 43/34/82 57/41/82 58/42/82
f 45/36/83 46/62/83 55/27/83 56/28/83
f 61/59/84 62/60/84 66/64/84 65/63/84
f 44/33/85 58/42/85 61/59/85 59/65/85
f 55/69/86 46/68/86 60/67/86 62/66/86
f 46/73/87 44/72/87 59/71/87 60/70/87
f 59/65/89 61/59/89 65/63/89 63/78/89
f 62/82/90 60/81/90 64/80/90 66/79/90
f 60/70/91 59/71/91 63/84/91 64/83/91

