# WaveFront *.obj file (generated by CINEMA 4D)

mtllib ./Beerenbusch_alle.mtl

v 0 -597.70758056640625 0
v -80.64330291748047 17255.330078125 -0.43391248583794
v 7071.06787109375 -183.92694091796875 0
v 5000 -183.92694091796875 -5000
v 0.00000000000043 -183.92694091796875 -7071.06787109375
v -5000 -183.92694091796875 -5000
v -7071.06787109375 -183.92694091796875 -0.00000000000087
v -5000 -183.92694091796875 5000
v -0.0000000000013 -183.92694091796875 7071.06787109375
v 5000 -183.92694091796875 5000
v 10000 6887.14111328125 0
v 7071.06787109375 6887.14111328125 -7071.06787109375
v 0.00000000000061 6887.14111328125 -10000
v -7071.06787109375 6887.14111328125 -7071.06787109375
v -10000 6887.14111328125 -0.00000000000122
v -7071.06787109375 6887.14111328125 7071.06787109375
v -0.00000000000184 6887.14111328125 10000
v 7071.06787109375 6887.14111328125 7071.06787109375
v 8495.0556640625 14083.431640625 16.79938316345215
v 5236.05029296875 13807.4970703125 -5669.8583984375
v -29.87508964538574 14101.8310546875 -7365.2880859375
v -4939.62060546875 14198.6708984375 -5077.16748046875
v -7667.64208984375 13927.216796875 19.03732109069824
v -4743.41748046875 14035.2109375 5069.23291015625
v -139.22126770019531 13881.4716796875 8143.98779296875
v 5615.89208984375 14025.404296875 5919.39306640625
# 26 vertices

vn 0.86285620927811 -0.35740676522255 -0.35740676522255
vn 0.90828824043274 -0.05952693894506 -0.41408815979958
vn 0.35740676522255 -0.35740676522255 -0.86285620927811
vn 0.36675316095352 -0.03345816582441 -0.92971646785736
vn -0.35740676522255 -0.35740676522255 -0.86285620927811
vn -0.86285620927811 -0.35740676522255 -0.35740676522255
vn -0.86285620927811 -0.35740676522255 0.35740676522255
vn -0.35740676522255 -0.35740676522255 0.86285620927811
vn -0.60967910289764 0.10310346633196 0.78591412305832
vn -0.42406886816025 -0.02605308406055 0.90525513887405
vn 0.35740676522255 -0.35740676522255 0.86285620927811
vn 0.37489399313927 -0.06441528350115 0.92482709884644
vn 0.86285620927811 -0.35740676522255 0.35740676522255
vn 0.91516107320786 -0.07293383032084 0.39643523097038
vn 0.86833280324936 0.24394896626472 -0.43184146285057
vn 0.33593994379044 0.29415410757065 -0.89477241039276
vn -0.37794473767281 0.32767313718796 -0.86590307950974
vn -0.65616381168365 0.34718954563141 -0.670006275177
vn -0.85816144943237 0.32637569308281 -0.39628002047539
vn -0.84773874282837 0.32755294442177 0.41719070076942
vn -0.67449468374252 0.33266738057137 0.65908217430115
vn -0.44152337312698 0.30832371115685 0.84261119365692
vn 0.35864448547363 0.23437292873859 0.90357261896133
vn 0.88950896263123 0.21775189042091 0.40169382095337
vn 0.00000000093319 -1 -0.00000000093319
vn 0.05841748043895 -0.99829226732254 0
vn 0.04130739718676 -0.99829226732254 -0.04130739718676
vn 0 0 0
vn 0.25779432058334 0.9137709736824 -0.31395012140274
vn 0.34678363800049 0.93740910291672 -0.03170708566904
vn -0.02658541128039 0.99963039159775 -0.00568202650174
vn 0 -0.99829226732254 -0.05841748043895
vn 0.00584588013589 0.91927343606949 -0.39357620477676
vn -0.04130739718676 -0.99829226732254 -0.04130739718676
vn -0.28382262587547 0.9169505238533 -0.28043967485428
vn -0.05841748043895 -0.99829226732254 0
vn -0.4015619456768 0.91555941104889 0.02233778499067
vn -0.04130739718676 -0.99829226732254 0.04130739718676
vn -0.30764135718346 0.9055210351944 0.29221308231354
vn 0 -0.99829226732254 0.05841748043895
vn -0.04782263189554 0.9229308962822 0.38198363780975
vn 0.04130739718676 -0.99829226732254 0.04130739718676
vn 0.23532494902611 0.93035900592804 0.28116589784622
# 43 normals

vt 0 0.25 0
vt 0 0.5 0
vt 0.125 0.5 0
vt 0.125 0.25 0
vt 0.25 0.5 0
vt 0.25 0.25 0
vt 0.375 0.5 0
vt 0.375 0.25 0
vt 0.5 0.5 0
vt 0.5 0.25 0
vt 0.625 0.5 0
vt 0.625 0.25 0
vt 0.75 0.5 0
vt 0.75 0.25 0
vt 0.875 0.5 0
vt 0.875 0.25 0
vt 1 0.5 0
vt 1 0.25 0
vt 0 0.75 0
vt 0.125 0.75 0
vt 0.25 0.75 0
vt 0.375 0.75 0
vt 0.5 0.75 0
vt 0.625 0.75 0
vt 0.75 0.75 0
vt 0.875 0.75 0
vt 1 0.75 0
vt 0 0 0
vt 0 1 0
vt 0.125 0 0
vt 0.125 1 0
vt 0.25 0 0
vt 0.25 1 0
vt 0.375 0 0
vt 0.375 1 0
vt 0.5 0 0
vt 0.5 1 0
vt 0.625 0 0
vt 0.625 1 0
vt 0.75 0 0
vt 0.75 1 0
vt 0.875 0 0
vt 0.875 1 0
# 43 texture coordinates

o Kugel
usemtl Mat
f 4/4/1 12/3/2 11/2/2 3/1/1
f 5/6/3 13/5/4 12/3/4 4/4/3
f 6/8/5 14/7/5 13/5/5 5/6/5
f 7/10/6 15/9/6 14/7/6 6/8/6
f 8/12/7 16/11/7 15/9/7 7/10/7
f 9/14/8 17/13/10 16/11/9 8/12/8
f 10/16/11 18/15/12 17/13/12 9/14/11
f 3/18/13 11/17/14 18/15/14 10/16/13
f 12/3/2 20/20/15 19/19/15 11/2/2
f 13/5/4 21/21/16 20/20/16 12/3/4
f 14/7/18 22/22/18 21/21/17 13/5/17
f 15/9/19 23/23/19 22/22/18 14/7/18
f 16/11/9 24/24/21 23/23/20 15/9/20
f 17/13/10 25/25/22 24/24/21 16/11/9
f 18/15/12 26/26/23 25/25/23 17/13/12
f 11/17/14 19/27/24 26/26/24 18/15/14
f 4/4/27 3/1/26 1/28/25
f 2/29/31 19/19/30 20/20/29
f 5/6/32 4/4/27 1/30/25
f 2/31/31 20/20/29 21/21/33
f 6/8/34 5/6/32 1/32/25
f 2/33/31 21/21/33 22/22/35
f 7/10/36 6/8/34 1/34/25
f 2/35/31 22/22/35 23/23/37
f 8/12/38 7/10/36 1/36/25
f 2/37/31 23/23/37 24/24/39
f 9/14/40 8/12/38 1/38/25
f 2/39/31 24/24/39 25/25/41
f 10/16/42 9/14/40 1/40/25
f 2/41/31 25/25/41 26/26/43
f 3/18/26 10/16/42 1/42/25
f 2/43/31 26/26/43 19/27/30

