# WaveFront *.obj file (generated by CINEMA 4D)

mtllib ./Zahn.mtl

v -21.88393592834473 59.95406723022461 -23.91768455505371
v 21.1830940246582 61.24650573730469 -21.36684226989746
v 21.14039611816406 59.59705352783203 24.47560119628906
v -21.57859230041504 62.26704406738281 23.68839263916016
v 1.20425987243652 3.68812918663025 0.20201130211353
v -13.60829830169678 59.74758148193359 -27.24996566772461
v 0.06089788675308 60.70425796508789 -27.31741142272949
v 14.09217071533203 61.16835403442383 -25.06174468994141
v 26.33249664306641 59.15287399291992 -15.14441013336182
v 24.10072708129883 61.871337890625 -1.81957495212555
v 23.73389625549316 61.64548873901367 12.45704650878906
v 12.54902458190918 59.49658966064453 27.32975769042969
v 0 61.19551467895508 29.12738037109375
v -15.18866920471191 61.19277191162109 28.39301300048828
v -24.96120643615723 58.38258743286133 -12.27220344543457
v -27.48383331298828 59.44135665893555 -0.00365528766997
v -25.95336723327637 62.60732650756836 14.73895740509033
v 18.82916641235352 47.20980834960938 23.55419921875
v 15.18866920471191 30.92155838012695 16.40738677978516
v 7.59433460235596 15.77768611907959 8.2025089263916
v 22.12486267089844 46.02289962768555 -23.64217758178711
v 15.18866920471191 30.79805755615234 -16.63805389404297
v 7.59433460235596 15.71593475341797 -8.32021141052246
v -19.67598724365234 46.05680847167969 22.30429267883301
v -15.18866920471191 30.92155838012695 16.40738677978516
v -7.59433460235596 15.77768611907959 8.2025089263916
v -20.17072105407715 46.15946578979492 -22.78722953796387
v -15.18866920471191 30.79805755615234 -16.63805389404297
v -7.59433460235596 15.71593475341797 -8.32021141052246
v -15.18866920471191 61.02405166625977 -16.75101852416992
v -15.18866920471191 61.0858039855957 -0.22829896211624
v -15.18866920471191 61.14755630493164 16.29442024230957
v 0 61.02405166625977 -16.75101852416992
v 0 61.0858039855957 -0.22829896211624
v 0 61.14755630493164 16.29442024230957
v 15.18866920471191 61.02405166625977 -16.75101852416992
v 15.18866920471191 61.0858039855957 -0.22829896211624
v 15.18866920471191 61.14755630493164 16.29442024230957
v 15.18866920471191 30.85980796813965 -0.11533386260271
v 22.78300285339355 46.00368118286133 8.08954334259033
v 22.78300285339355 45.94192886352539 -8.43317604064941
v 0 30.92155838012695 16.40738677978516
v -7.59433460235596 46.06543350219727 24.61226272583008
v 7.59433460235596 46.06543350219727 24.61226272583008
v -15.18866920471191 30.85980796813965 -0.11533386260271
v -22.78300285339355 45.94192886352539 -8.43317604064941
v -22.78300285339355 46.00368118286133 8.08954334259033
v 0 30.79805755615234 -16.63805389404297
v 7.59433460235596 45.88018035888672 -24.95589637756348
v -7.59433460235596 45.88018035888672 -24.95589637756348
# 50 vertices

vn -0.12907613813877 0.99125581979752 -0.02740870788693
vn -0.08216546475887 0.99527907371521 -0.05165652930737
vn -0.09104855358601 0.99498414993286 -0.04143313318491
vn -0.16407287120819 0.98551660776138 -0.04286102205515
vn -0.04612769931555 0.99789744615555 -0.0455287694931
vn -0.09236185997725 0.99188214540482 -0.08740197122097
vn 0.04758083447814 0.99807548522949 -0.03976688161492
vn 0.0951812043786 0.99256998300552 -0.07579788565636
vn 0.08752795308828 0.9959671497345 -0.01970592886209
vn 0.17436154186726 0.98404091596603 -0.03551837801933
vn -0.02668769471347 0.99884617328644 -0.03992627188563
vn -0.01334268692881 0.99967265129089 -0.02183120511472
vn 0 0.99999302625656 -0.00373739236966
vn 0.01680696755648 0.99974113702774 0.0153368441388
vn 0.03362482786179 0.9988414645195 0.0344258621335
vn -0.03701388835907 0.99068868160248 0.13101856410503
vn -0.00596859399229 0.99906396865845 0.04284361004829
vn -0.00574268540367 0.99973690509796 -0.02220631577075
vn 0.00624053785577 0.99818903207779 0.05983025580645
vn 0.04880883917212 0.99171960353851 0.11878500878811
vn -0.05502181500196 0.96305358409882 0.26362934708595
vn -0.00271117943339 0.99591255187988 0.09028194099665
vn -0.01149997860193 0.9991043806076 -0.04072081670165
vn -0.02124193497002 0.99613451957703 0.0852338373661
vn 0.03033354319632 0.98586475849152 0.16477437317371
vn 0.88361829519272 -0.46820464730263 0.0017498676898
vn 0.8902735710144 -0.45542299747467 0.00170206604525
vn 0.8902735710144 -0.45542293787003 0.00170206592884
vn 0 0 0
vn 0.90834337472916 -0.40887150168419 0.08795699477196
vn 0.89353185892105 -0.44899663329124 0.00167804618832
vn 0.89655721187592 -0.4427470266819 -0.01265713945031
vn 0.94922959804535 -0.21414548158646 0.23044493794441
vn 0.96264404058456 -0.2545864880085 0.09220718592405
vn 0.94950550794601 -0.31315445899963 0.01932751573622
vn 0.93357282876968 -0.35588350892067 -0.04229322820902
vn 0.9653622508049 -0.19316498935223 0.1753938794136
vn 0.97958898544312 -0.13083580136299 0.15260225534439
vn 0.99183374643326 -0.1041594222188 0.07359762489796
vn 0.97198003530502 -0.22222302854061 0.07662685960531
vn 0.38724803924561 -0.05349553376436 -0.92042225599289
vn 0.78538143634796 0.13874965906143 -0.60326159000397
vn 0.63489973545074 0.1524779945612 -0.75739872455597
vn 0 -0.55186957120895 0.83393043279648
vn 0 -0.50196957588196 0.86488527059555
vn -0.05742064118385 -0.45317074656487 0.88957244157791
vn 0 -0.47637045383453 0.87924468517303
vn 0.04260327294469 -0.459337413311 0.88723957538605
vn -0.69634240865707 -0.30388167500496 0.65020245313644
vn -0.06641843169928 -0.37372693419456 0.92515766620636
vn 0.05867245793343 -0.35846751928329 0.93169659376144
vn 0.18776848912239 -0.26598557829857 0.94551289081573
vn -0.76728004217148 -0.14342711865902 0.62506794929504
vn -0.28525429964066 -0.24981471896172 0.92532294988632
vn 0.02007329277694 -0.26223286986351 0.9647958278656
vn 0.17962427437305 -0.20152227580547 0.96287274360657
vn 0.3140073120594 -0.12855836749077 0.94067645072937
vn -0.8078430891037 -0.58939349651337 0.00220278464258
vn -0.86758083105087 -0.49729269742966 0.0018585450016
vn -0.86758083105087 -0.49729269742966 0.00185854523443
vn -0.90439409017563 -0.42294675111771 -0.05645652115345
vn -0.8935319185257 -0.44899660348892 0.00167804630473
vn -0.90574377775192 -0.41823676228523 0.06860221922398
vn -0.94714760780334 -0.2442529052496 -0.20797097682953
vn -0.93530809879303 -0.34272935986519 -0.08795110136271
vn -0.93189471960068 -0.35010373592377 0.09486641734838
vn -0.95238518714905 -0.14045795798302 -0.27061775326729
vn -0.95812153816223 -0.19562532007694 -0.20912633836269
vn -0.96336752176285 -0.26805391907692 -0.00837309379131
vn -0.93915909528732 -0.2179552167654 0.26547259092331
vn 0 -0.57813149690628 -0.81594359874725
vn 0 -0.51538705825806 -0.85695749521256
vn 0.02831473015249 -0.47176563739777 -0.88126921653748
vn 0 -0.48292919993401 -0.87565940618515
vn -0.05477034300566 -0.46091651916504 -0.88575178384781
vn 0.05726034939289 -0.28833469748497 -0.95581609010696
vn -0.05541468784213 -0.32606250047684 -0.94372266530991
vn -0.238719150424 -0.25848323106766 -0.93605536222458
vn 0.23998884856701 0.01315052714199 -0.97068655490875
vn 0.05588479340076 -0.13145054876804 -0.98974627256393
vn -0.18155391514301 -0.17386510968208 -0.96788901090622
vn -0.37335222959518 -0.12173426151276 -0.91966778039932
# 82 normals

vt 0.79999995231628 0.5 0
vt 0.72499990463257 0.57499998807907 0
vt 0.64999997615814 0.5 0
vt 0.72499990463257 0.42500007152557 0
vt 0.57499992847443 0.42500007152557 0
vt 0.64999997615814 0.35000002384186 0
vt 0.5 0.35000002384186 0
vt 0.57499992847443 0.27500009536743 0
vt 0.42499995231628 0.27500009536743 0
vt 0.5 0.20000004768372 0
vt 0.64999997615814 0.64999997615814 0
vt 0.57499992847443 0.57499998807907 0
vt 0.5 0.5 0
vt 0.42499995231628 0.42500007152557 0
vt 0.34999996423721 0.35000002384186 0
vt 0.57499992847443 0.72499996423721 0
vt 0.5 0.65000003576279 0
vt 0.42499995231628 0.57499998807907 0
vt 0.34999996423721 0.5 0
vt 0.27499997615814 0.42500007152557 0
vt 0.5 0.80000001192093 0
vt 0.42500001192093 0.72500002384186 0
vt 0.35000002384186 0.64999997615814 0
vt 0.27500003576279 0.57499998807907 0
vt 0.19999998807907 0.5 0
vt 0 1 0
vt 0.04999999701977 0.875 0
vt 0.125 0.94999998807907 0
vt 0.09999999403954 0.75 0
vt 0.17499998211861 0.82500004768372 0
vt 0.25 0.89999997615814 0
vt 0.1499999910593 0.625 0
vt 0.22499999403954 0.69999998807907 0
vt 0.30000001192093 0.77499997615814 0
vt 0.375 0.85000002384186 0
vt 0 0 0
vt 0.125 0.05000007152557 0
vt 0.04999999701977 0.125 0
vt 0.25 0.10000002384186 0
vt 0.17499998211861 0.17500007152557 0
vt 0.09999999403954 0.25 0
vt 0.375 0.14999997615814 0
vt 0.30000001192093 0.22500002384186 0
vt 0.22499999403954 0.30000007152557 0
vt 0.1499999910593 0.375 0
vt 1 0 0
vt 0.94999998807907 0.125 0
vt 0.875 0.05000007152557 0
vt 0.89999997615814 0.25 0
vt 0.82499992847443 0.17500007152557 0
vt 0.75 0.10000002384186 0
vt 0.84999996423721 0.375 0
vt 0.77499997615814 0.30000007152557 0
vt 0.69999992847443 0.22500002384186 0
vt 0.625 0.14999997615814 0
vt 1 1 0
vt 0.875 0.94999998807907 0
vt 0.94999998807907 0.875 0
vt 0.75 0.89999997615814 0
vt 0.82499992847443 0.82500004768372 0
vt 0.89999997615814 0.75 0
vt 0.625 0.85000002384186 0
vt 0.69999992847443 0.77499997615814 0
vt 0.77499997615814 0.69999998807907 0
vt 0.84999996423721 0.625 0
# 65 texture coordinates

o Pyramide
usemtl Mat
f 15/4/4 30/3/3 6/2/2 1/1/1
f 16/6/6 31/5/5 30/3/3 15/4/4
f 17/8/8 32/7/7 31/5/5 16/6/6
f 4/10/10 14/9/9 32/7/7 17/8/8
f 30/3/3 33/12/12 7/11/11 6/2/2
f 31/5/5 34/13/13 33/12/12 30/3/3
f 32/7/7 35/14/14 34/13/13 31/5/5
f 14/9/9 13/15/15 35/14/14 32/7/7
f 33/12/12 36/17/17 8/16/16 7/11/11
f 34/13/13 37/18/18 36/17/17 33/12/12
f 35/14/14 38/19/19 37/18/18 34/13/13
f 13/15/15 12/20/20 38/19/19 35/14/14
f 36/17/17 9/22/22 2/21/21 8/16/16
f 37/18/18 10/23/23 9/22/22 36/17/17
f 38/19/19 11/24/24 10/23/23 37/18/18
f 12/20/20 3/25/25 11/24/24 38/19/19
f 23/28/28 20/27/27 5/26/26
f 39/30/31 19/29/30 20/27/27
f 20/27/27 23/28/28 39/30/31
f 22/31/32 39/30/31 23/28/28
f 40/33/34 18/32/33 19/29/30
f 19/29/30 39/30/31 40/33/34
f 41/34/35 40/33/34 39/30/31
f 39/30/31 22/31/32 41/34/35
f 21/35/36 41/34/35 22/31/32
f 11/24/38 3/25/37 18/32/33
f 18/32/33 40/33/34 11/24/38
f 10/23/39 11/24/38 40/33/34
f 40/33/34 41/34/35 10/23/39
f 9/22/40 10/23/39 41/34/35
f 41/34/35 21/35/36 9/22/40
f 2/21/43 9/22/42 21/35/41
f 20/38/45 26/37/45 5/36/44
f 42/40/47 25/39/46 26/37/45
f 26/37/45 20/38/45 42/40/47
f 19/41/48 42/40/47 20/38/45
f 43/43/50 24/42/49 25/39/46
f 25/39/46 42/40/47 43/43/50
f 44/44/51 43/43/50 42/40/47
f 42/40/47 19/41/48 44/44/51
f 18/45/52 44/44/51 19/41/48
f 14/9/54 4/10/53 24/42/49
f 24/42/49 43/43/50 14/9/54
f 13/15/55 14/9/54 43/43/50
f 43/43/50 44/44/51 13/15/55
f 12/20/56 13/15/55 44/44/51
f 44/44/51 18/45/52 12/20/56
f 3/25/57 12/20/56 18/45/52
f 26/48/60 29/47/59 5/46/58
f 45/50/62 28/49/61 29/47/59
f 29/47/59 26/48/60 45/50/62
f 25/51/63 45/50/62 26/48/60
f 46/53/65 27/52/64 28/49/61
f 28/49/61 45/50/62 46/53/65
f 47/54/66 46/53/65 45/50/62
f 45/50/62 25/51/63 47/54/66
f 24/55/49 47/54/66 25/51/63
f 15/4/68 1/1/67 27/52/64
f 27/52/64 46/53/65 15/4/68
f 16/6/69 15/4/68 46/53/65
f 46/53/65 47/54/66 16/6/69
f 17/8/70 16/6/69 47/54/66
f 47/54/66 24/55/49 17/8/70
f 4/10/53 17/8/70 24/55/49
f 29/58/72 23/57/72 5/56/71
f 48/60/74 22/59/73 23/57/72
f 23/57/72 29/58/72 48/60/74
f 28/61/75 48/60/74 29/58/72
f 49/63/76 21/62/41 22/59/73
f 22/59/73 48/60/74 49/63/76
f 50/64/77 49/63/76 48/60/74
f 48/60/74 28/61/75 50/64/77
f 27/65/78 50/64/77 28/61/75
f 8/16/79 2/21/43 21/62/41
f 21/62/41 49/63/76 8/16/79
f 7/11/80 8/16/79 49/63/76
f 49/63/76 50/64/77 7/11/80
f 6/2/81 7/11/80 50/64/77
f 50/64/77 27/65/78 6/2/81
f 1/1/82 6/2/81 27/65/78

